<svg xmlns="http://www.w3.org/2000/svg" width="500" height="500" viewBox="0 0 500 694"><path style="stroke:none;fill-rule:evenodd;fill:#040201;fill-opacity:1" d="M-3.473-3.469h500v694h-500v-694Zm0 0"/><path style="stroke:none;fill-rule:evenodd;fill:#40230f;fill-opacity:1" d="M100.695 52.05c0 4.626-2.316 6.938-6.945 6.938-6.945-18.504-13.89-18.504-20.832 0-4.633 0-6.945-2.312-6.945-6.937-.575-12.156 5.215-19.098 17.359-20.82 12.148 1.722 17.934 8.664 17.363 20.82Zm0 0"/><path style="stroke:none;fill-rule:evenodd;fill:#954f27;fill-opacity:1" d="M93.75 58.988H72.918c6.941-18.504 13.887-18.504 20.832 0Zm0 0"/><path style="stroke:none;fill-rule:evenodd;fill:#1b120a;fill-opacity:1" d="M447.918 156.148h-20.836c1.04-7.3-.117-14.238-3.473-20.82-6.941 11.57-16.203 20.82-27.777 27.762-4.285-6.586-3.129-12.371 3.473-17.352-6.504-4.797-11.133-3.64-13.887 3.473-14.484 10.57-26.059 8.258-34.723-6.941-22.535-13.18-43.37-29.375-62.5-48.579-11.906 7.692-16.535 3.067-13.89-13.882-7.305-1.036-14.25.12-20.832 3.472 2.312 2.313 4.629 4.625 6.945 6.938-8.453 11.437-14.238 24.16-17.363 38.172-26.727-49.63-41.774-46.157-45.137 10.41-11.762-3.223-23.336-9.004-34.723-17.352-18.836-3.969-39.668-3.969-62.5 0-25.027 8.82-43.543 25.012-55.554 48.582 2.343-17.43 2.343-33.625 0-48.582 1.875-26.207 8.816-49.34 20.832-69.398 0 4.625 2.312 6.937 6.945 6.937H93.75c4.629 0 6.945-2.312 6.945-6.937 42.649 2.777 84.317-1.852 125-13.88-1.453-4.07-3.77-7.538-6.945-10.41 16.203-4.628 32.406-4.628 48.61 0-3.176 2.872-5.489 6.34-6.942 10.41a7266.599 7266.599 0 0 0 111.11 13.88c7.792-10.715 5.48-19.969-6.946-27.762 34.496-8.066 69.215-9.223 104.168-3.469 2.316 2.313 4.629 4.625 6.945 6.942-24.675 3.023-38.566 16.902-41.668 41.636 8.727 28.036 13.356 56.954 13.891 86.75Zm0 0"/><path style="stroke:none;fill-rule:evenodd;fill:#271a0d;fill-opacity:1" d="M350.695 142.27c-8.68.539-14.468 5.164-17.363 13.878-6.176-9.632-9.648-8.476-10.414 3.473 4.96 24.332 9.59 48.621 13.887 72.867-22.852 20.16-29.797 15.535-20.832-13.879-7.426.973-15.528.973-24.305 0-7.836-12.804-11.309-26.687-10.418-41.64 1.41-10.715 6.04-19.969 13.89-27.758-3.472-2.313-6.945-4.629-10.417-6.941-12.504 5.687-25.235 10.316-38.196 13.878-8.68.54-14.464 5.165-17.359 13.883-2.316-4.629-4.633-9.254-6.945-13.883-1.73 7.801-5.203 14.743-10.418 20.82-9.836-12.222-21.41-21.472-34.723-27.757l-13.887-27.762c11.387 8.348 22.961 14.13 34.723 17.352 3.363-56.567 18.41-60.04 45.137-10.41 3.125-14.012 8.91-26.735 17.363-38.172-2.316-2.313-4.633-4.625-6.945-6.938 6.582-3.351 13.527-4.508 20.832-3.472-2.645 16.949 1.984 21.574 13.89 13.882 19.13 19.204 39.965 35.399 62.5 48.579Zm0 0"/><path style="stroke:none;fill-rule:evenodd;fill:#e26928;fill-opacity:1" d="M281.25 176.969c-6.45 9.969-14.55 19.222-24.305 27.761-12.699-15.5-16.172-31.69-10.418-48.582 12.961-3.562 25.692-8.191 38.196-13.878 3.472 2.312 6.945 4.628 10.418 6.94-7.852 7.79-12.48 17.044-13.891 27.759Zm0 0"/><path style="stroke:none;fill-rule:evenodd;fill:#97572e;fill-opacity:1" d="M163.195 121.45c4.63 9.253 9.258 18.507 13.887 27.76 7.895 18.942 17.156 37.45 27.777 55.52a310.454 310.454 0 0 0-6.941 13.88c-1.45 9.867-4.922 19.12-10.418 27.761-2.316-2.312-4.629-4.629-6.945-6.941-9.258 13.879-20.832 25.445-34.723 34.699-14.852-1.926-29.898-1.926-45.137 0-2.152-8.594-5.625-8.594-10.418 0-7.53-8.574-13.32-17.828-17.359-27.758C61.176 224.54 57.703 201.406 62.5 176.97c9.336-25.758 22.07-44.262 38.195-55.52 22.832-3.969 43.664-3.969 62.5 0Zm0 0"/><path style="stroke:none;fill-rule:evenodd;fill:#6e4527;fill-opacity:1" d="M350.695 142.27c8.664 15.199 20.239 17.511 34.723 6.94-4.254 30.372 3.848 34.997 24.305 13.88 7.601 10.95 13.386 22.52 17.359 34.7-27.789 8.562-45.152-3.005-52.082-34.7-12.906 19.472-9.434 36.824 10.418 52.05 13.887 4.626 27.777 4.626 41.664 0 10.234-4.925 14.863-13.019 13.89-24.288-1.859-11.098.454-20.352 6.946-27.762v90.219c-30.148 1.843-52.14 15.726-65.973 41.64-10.25-33.742 2.48-48.777 38.196-45.11-12.508-2.202-14.82-6.827-6.946-13.878-13.644-4.332-25.218-.863-34.722 10.41-5.426-8.527-8.899-17.781-10.418-27.762-2.313 2.313-4.63 4.63-6.946 6.942-8.687-10.418-15.632-21.985-20.832-34.7-4.629 6.938-4.629 13.88 0 20.82a6262.434 6262.434 0 0 1 24.305 38.169c-16.644 40.082-21.273 40.082-13.887 0-.965-9.028-5.593-14.813-13.89-17.352a2882.945 2882.945 0 0 0-13.887-72.867c.766-11.95 4.238-13.105 10.414-3.473 2.895-8.714 8.684-13.34 17.363-13.878Zm0 0"/><path style="stroke:none;fill-rule:evenodd;fill:#603f24;fill-opacity:1" d="M100.695 121.45c-16.125 11.257-28.86 29.76-38.195 55.519-4.797 24.437-1.324 47.57 10.418 69.402-12.32-6.035-21.578-15.289-27.777-27.762 1.882-16.62 1.882-32.816 0-48.578 12.011-23.57 30.527-39.761 55.554-48.582Zm0 0"/><path style="stroke:none;fill-rule:evenodd;fill:#2f1e0f;fill-opacity:1" d="M135.418 156.148c16.3.641 27.875 7.582 34.723 20.82-22.352 1.048-24.664 6.833-6.946 17.352-6.945 2.313-13.89 4.625-20.836 6.942 7.63 5.34 7.63 11.125 0 17.347-11.148 8.887-18.093 5.414-20.832-10.41 2.864-17.082 2.864-33.277 0-48.578 4.13-3.223 8.758-4.379 13.891-3.473Zm0 0"/><path style="stroke:none;fill-rule:evenodd;fill:#452d17;fill-opacity:1" d="M447.918 156.148v6.942c-6.492 7.41-8.805 16.664-6.945 27.762-4.63 2.312-9.258 4.625-13.891 6.937-3.973-12.18-9.758-23.75-17.36-34.7-20.456 21.118-28.558 16.493-24.304-13.878 2.754-7.113 7.383-8.27 13.887-3.473-6.602 4.98-7.758 10.766-3.473 17.352 11.574-6.942 20.836-16.192 27.777-27.762 3.356 6.582 4.512 13.52 3.473 20.82h20.836Zm0 0"/><path style="stroke:none;fill-rule:evenodd;fill:#e76c29;fill-opacity:1" d="M427.082 197.79c4.633-2.313 9.262-4.626 13.89-6.938.973 11.27-3.656 19.363-13.89 24.289-13.887 4.625-27.777 4.625-41.664 0-19.852-15.227-23.324-32.578-10.418-52.051 6.93 31.695 24.293 43.262 52.082 34.7Zm0 0"/><path style="stroke:none;fill-rule:evenodd;fill:#4d3119;fill-opacity:1" d="M135.418 156.148c-5.133-.906-9.762.25-13.89 3.473 2.863 15.3 2.863 31.496 0 48.578 2.738 15.824 9.683 19.297 20.831 10.41 2.645 9.934 9.59 15.715 20.836 17.352-15.855 15.2-34.37 19.824-55.554 13.879-43.016-29.82-45.332-62.207-6.946-97.16 13.102-5.41 24.676-4.254 34.723 3.468Zm0 0"/><path style="stroke:none;fill-rule:evenodd;fill:#cb682f;fill-opacity:1" d="M79.86 190.852c8.16-1.52 15.105.793 20.835 6.937-10.777 9.008-17.722 6.695-20.836-6.937Zm0 0"/><path style="stroke:none;fill-rule:evenodd;fill:#624025;fill-opacity:1" d="M170.14 176.969c6.676 12.246 8.989 26.129 6.942 41.64h-34.723c7.63-6.222 7.63-12.007 0-17.347 6.946-2.317 13.891-4.63 20.836-6.942-17.718-10.52-15.406-16.304 6.946-17.351Zm0 0"/><path style="stroke:none;fill-rule:evenodd;fill:#271a0d;fill-opacity:1" d="M45.14 218.61c6.2 12.472 15.458 21.726 27.778 27.761 4.039 9.93 9.828 19.184 17.36 27.758 4.792-8.594 8.265-8.594 10.417 0 9.953 9.254 19.215 19.664 27.778 31.23-11.633 6.84-23.207 12.621-34.723 17.352-15.523-2.047-29.414.266-41.668 6.937-5.82 2.372-8.133 7-6.941 13.883-6.926.207-11.555-3.265-13.891-10.41 12.785-36.855 17.414-75.023 13.89-114.512Zm0 0"/><path style="stroke:none;fill-rule:evenodd;fill:#3c2814;fill-opacity:1" d="M177.082 149.21c13.313 6.286 24.887 15.536 34.723 27.759 5.215-6.078 8.687-13.02 10.418-20.82 2.312 4.628 4.629 9.253 6.945 13.882 2.894-8.719 8.68-13.344 17.36-13.883-5.755 16.891-2.282 33.082 10.417 48.582 9.754-8.539 17.856-17.792 24.305-27.761-.89 14.953 2.582 28.836 10.418 41.64 8.777.973 16.879.973 24.305 0-8.965 29.414-2.02 34.04 20.832 13.88 8.297 2.538 12.925 8.323 13.89 17.35-7.386 40.083-2.757 40.083 13.887 0a6262.434 6262.434 0 0 0-24.305-38.167c-4.629-6.942-4.629-13.883 0-20.82 5.2 12.714 12.145 24.28 20.832 34.699 2.317-2.313 4.633-4.63 6.946-6.942 1.52 9.98 4.992 19.235 10.418 27.762 9.504-11.273 21.078-14.742 34.722-10.41-7.875 7.05-5.562 11.676 6.946 13.879-35.715-3.668-48.446 11.367-38.196 45.11 13.832-25.915 35.825-39.798 65.973-41.641v69.402c-44.594-8.691-58.484 7.5-41.668 48.578-9.355-3.664-18.617-4.824-27.777-3.469 6.945 11.567 13.886 23.133 20.832 34.7-3.93 6.902-8.559 12.687-13.887 17.351-4.781-33.59-16.356-35.902-34.723-6.941 3.309 6.785 7.938 12.566 13.887 17.351-14.281 14.438-25.855 13.281-34.723-3.472-3.515-9.43-10.46-16.372-20.832-20.82 6.883-12.653 16.141-23.063 27.778-31.227-8.657-10.121-8.657-20.532 0-31.23-3.028-17.989-9.973-34.18-20.832-48.583 9.675-21.527 3.886-28.465-17.364-20.82-.449-16.54-6.238-21.164-17.359-13.879-6.945-11.566-16.203-20.82-27.777-27.762-5.215 6.082-8.688 13.02-10.418 20.82-2.25-14.355-8.04-16.671-17.36-6.937-11.914-7.277-21.172-16.531-27.777-27.762a310.454 310.454 0 0 1 6.941-13.879c-10.62-18.07-19.882-36.578-27.777-55.52Zm0 0"/><path style="stroke:none;fill-rule:evenodd;fill:#7f4725;fill-opacity:1" d="M52.082 329.648c12.254-6.671 26.145-8.984 41.668-6.937 8.16-1.52 15.105.793 20.832 6.937-.855 4.211-3.172 6.524-6.941 6.942-17-6.754-35.52-9.067-55.559-6.942Zm0 0"/><path style="stroke:none;fill-rule:evenodd;fill:#89502d;fill-opacity:1" d="M447.918 322.71v48.58c-14.664 8.616-28.55 8.616-41.668 0-16.816-41.08-2.926-57.27 41.668-48.58Zm0 0"/><path style="stroke:none;fill-rule:evenodd;fill:#954e27;fill-opacity:1" d="M52.082 329.648c.395 7.7 2.711 14.637 6.945 20.82H45.141v-6.937c-1.192-6.883 1.12-11.511 6.941-13.883Zm0 0"/><path style="stroke:none;fill-rule:evenodd;fill:#ef6b22;fill-opacity:1" d="M52.082 329.648c20.04-2.125 38.559.188 55.559 6.942l-27.782 27.762c-8.398-3-15.343-7.625-20.832-13.883-4.234-6.184-6.55-13.121-6.945-20.82Zm0 0"/><path style="stroke:none;fill-rule:evenodd;fill:#4c331b;fill-opacity:1" d="M197.918 218.61c6.605 11.23 15.863 20.484 27.777 27.761 9.32-9.734 15.11-7.418 17.36 6.938 1.73-7.801 5.203-14.739 10.418-20.82 11.574 6.94 20.832 16.195 27.777 27.761 11.121-7.285 16.91-2.66 17.36 13.879 21.25-7.645 27.038-.707 17.363 20.82 10.859 14.403 17.804 30.594 20.832 48.582-8.657 10.7-8.657 21.11 0 31.23-11.637 8.165-20.895 18.575-27.778 31.227 10.371 4.45 17.317 11.39 20.832 20.82-8.386-5.093-17.644-7.406-27.777-6.937v20.82c-6.488-7.41-8.805-16.664-6.941-27.761C279.684 423.059 264.637 430 250 433.75c-6.945-9.254-13.89-9.254-20.832 0a22978.99 22978.99 0 0 1-6.945-13.879c-5.79 6.938-11.575 13.879-17.364 20.82-6.703-13.16-9.02-27.039-6.941-41.64-9.184-1.18-17.285 1.133-24.309 6.937-2.312-9.25-4.629-18.504-6.941-27.758-11.574 5.832-12.73 2.36-3.473-10.41-28.98 1.582-56.757.426-83.336-3.468l27.782-27.762c3.77-.418 6.086-2.73 6.941-6.942-5.727-6.144-12.672-8.457-20.832-6.937 11.516-4.73 23.09-10.512 34.723-17.352-8.563-11.566-17.825-21.976-27.778-31.23 15.239-1.926 30.285-1.926 45.137 0 13.89-9.254 25.465-20.82 34.723-34.7 2.316 2.313 4.629 4.63 6.945 6.942 5.496-8.64 8.969-17.894 10.418-27.762Zm0 0"/><path style="stroke:none;fill-rule:evenodd;fill:#6c4726;fill-opacity:1" d="M274.305 385.172c-6.489 7.406-8.805 16.66-6.946 27.758-20.468-1.922-40.144.39-59.027 6.941-3.402-8.976-4.559-18.23-3.473-27.762-9.535 1.09-18.797-.07-27.777-3.468 2.316-2.313 4.633-4.63 6.945-6.942-9.511-10-16.457-21.57-20.832-34.699 4.63-2.313 9.258-4.625 13.887-6.941-8.156-17.457-5.84-34.805 6.945-52.047 21.844-16.203 46.153-27.77 72.918-34.703 15.672 12.777 33.035 22.03 52.082 27.761 4.262 29.164 3.106 59.239-3.472 90.22-7.078 8.237-15.18 15.179-24.305 20.82-4.215-.856-6.527-3.173-6.945-6.938Zm0 0"/><path style="stroke:none;fill-rule:evenodd;fill:#d79f47;fill-opacity:1" d="m288.195 329.648-13.89 27.762c-6.696 13.219-18.27 20.16-34.723 20.82-15.73-6.464-29.621-15.718-41.664-27.761v-6.938c12.805-22.883 32.48-36.761 59.027-41.64 11.91 7.664 22.328 16.918 31.25 27.757Zm0 0"/><path style="stroke:none;fill-rule:evenodd;fill:#986632;fill-opacity:1" d="M288.195 329.648c7.942 21.282 3.313 39.79-13.89 55.524-8.977-7.945-17.078-5.633-24.305 6.937-9.258-9.254-18.52-9.254-27.777 0-9.871-13.218-17.973-27.097-24.305-41.64 12.043 12.043 25.934 21.297 41.664 27.761 16.453-.66 28.027-7.601 34.723-20.82l13.89-27.762Zm0 0"/><path style="stroke:none;fill-rule:evenodd;fill:#f9de71;fill-opacity:1" d="M274.305 357.41a359.37 359.37 0 0 1-48.61 6.942c-3.297-17.922 1.332-31.801 13.887-41.641-12.555 9.84-17.184 23.719-13.887 41.64a359.37 359.37 0 0 0 48.61-6.94Zm0 0"/><path style="stroke:none;fill-rule:evenodd;fill:#fdffd6;fill-opacity:1" d="M239.582 322.71c20.336 7.892 22.652 17.145 6.945 27.759-14.879-6.504-17.191-15.754-6.945-27.758Zm0 0"/><path style="stroke:none;fill-rule:evenodd;fill:#a36d35;fill-opacity:1" d="M288.195 329.648c-8.922-10.84-19.34-20.093-31.25-27.757-26.547 4.879-46.222 18.757-59.027 41.64-1.113-11.793.043-23.36 3.473-34.703 30.527-32.644 59.46-32.644 86.804 0 8.004 8.238 8.004 15.18 0 20.82Zm0 0"/><path style="stroke:none;fill-rule:evenodd;fill:#23170b;fill-opacity:1" d="M406.25 371.29c13.117 8.616 27.004 8.616 41.668 0v104.1c-10.172 6.282-19.43 6.282-27.777 0 1.191-6.882-1.125-11.507-6.946-13.878v-6.942c23.684.805 32.942-10.761 27.778-34.699-19.848-3.273-33.735 3.664-41.668 20.82h-6.946c-2.898-5.007-7.527-8.48-13.886-10.41 3.859-2.656 6.175-6.125 6.945-10.41 5.328-4.664 9.957-10.45 13.887-17.351-6.946-11.567-13.887-23.133-20.832-34.7 9.16-1.355 18.422-.195 27.777 3.47Zm0 0"/><path style="stroke:none;fill-rule:evenodd;fill:#d8682b;fill-opacity:1" d="M329.86 426.809c-4.743 11.636-14.005 16.261-27.778 13.882v-20.82c10.133-.469 19.39 1.844 27.777 6.938Zm0 0"/><path style="stroke:none;fill-rule:evenodd;fill:#8c532e;fill-opacity:1" d="M86.805 412.93c2.238 9.425 2.238 20.992 0 34.699-5.012-2.895-8.485-7.524-10.414-13.879-3.407 8.977-4.563 18.23-3.473 27.762-5.012-2.899-8.484-7.528-10.418-13.883-.52 16.898-6.305 21.527-17.36 13.883v-6.942c9.075-11.96 9.075-24.683 0-38.172 10.387-3.52 18.489-.05 24.305 10.41 4.918-6.109 10.703-10.734 17.36-13.878Zm0 0"/><path style="stroke:none;fill-rule:evenodd;fill:#5a3b22;fill-opacity:1" d="M86.805 412.93c.418-3.77 2.73-6.082 6.945-6.942 9.98 17.66 20.398 17.66 31.25 0 5.867 14.657 11.652 28.535 17.36 41.64-2.313 4.63-4.63 9.255-6.942 13.884-20.152 11.21-36.356 6.582-48.613-13.883 2.238-13.707 2.238-25.274 0-34.7Zm0 0"/><path style="stroke:none;fill-rule:evenodd;fill:#392613;fill-opacity:1" d="M45.14 350.469h13.887c5.489 6.258 12.434 10.883 20.832 13.883 26.579 3.894 54.356 5.05 83.336 3.468-9.257 12.77-8.101 16.243 3.473 10.41 2.312 9.254 4.629 18.508 6.941 27.758 7.024-5.804 15.125-8.117 24.309-6.937-2.078 14.601.238 28.48 6.941 41.64 5.79-6.941 11.575-13.882 17.364-20.82 2.312 4.625 4.629 9.254 6.945 13.879 6.941-9.254 13.887-9.254 20.832 0 14.637-3.75 29.684-10.691 45.14-20.82-1.863 11.097.454 20.351 6.942 27.761 3.875 8.95 10.82 14.735 20.836 17.348-10.398 12.984-24.29 19.922-41.668 20.82-5.227 4.657-7.54 10.438-6.945 17.352-9.965 9.809-16.907 21.375-20.832 34.7-1.141-41.556-18.5-50.81-52.082-27.763-3.407 8.977-4.563 18.23-3.473 27.762-6.492-7.41-8.805-16.664-6.945-27.762H170.14l20.832-13.878c-2.899-5.008-7.532-8.477-13.891-10.41 3.176-2.872 5.492-6.344 6.945-10.41-8.254-6.446-17.515-8.759-27.777-6.938 1.871-13.387-1.602-24.953-10.418-34.703-3.352 6.582-4.508 13.52-3.473 20.82-5.707-13.106-11.492-26.984-17.359-41.64-10.852 17.66-21.27 17.66-31.25 0-4.215.859-6.527 3.171-6.945 6.94-6.657 3.145-12.442 7.77-17.36 13.88-5.816-10.461-13.918-13.93-24.304-10.41 9.074 13.488 9.074 26.21 0 38.171 2.52-16.734-4.422-27.144-20.836-31.23 8.101-3.469 13.89-9.254 17.363-17.352a225.152 225.152 0 0 0 3.473-55.52Zm0 0"/><path style="stroke:none;fill-rule:evenodd;fill:#533720;fill-opacity:1" d="M413.195 454.57c-6.945-2.312-11.574-6.941-13.89-13.879 7.933-17.156 21.82-24.093 41.668-20.82 5.164 23.938-4.094 35.504-27.778 34.7Zm0 0"/><path style="stroke:none;fill-rule:evenodd;fill:#f36a1d;fill-opacity:1" d="M413.195 461.512c5.82 2.37 8.137 6.996 6.946 13.879v34.699c-6.946 11.566-16.207 20.82-27.782 27.762-13.984.75-25.558-3.875-34.718-13.883-2.317-18.504-4.633-37.012-6.946-55.52 6.914-.594 12.703 1.719 17.36 6.942 3.355-6.579 4.511-13.52 3.472-20.82 14.34.116 28.227 2.433 41.668 6.94Zm0 0"/><path style="stroke:none;fill-rule:evenodd;fill:#e36a27;fill-opacity:1" d="M86.805 447.629c12.257 20.465 28.46 25.094 48.613 13.883 7.812 5.883 7.812 12.82 0 20.816-27.574 13.004-48.406 6.067-62.5-20.816-1.09-9.532.066-18.785 3.473-27.762 1.93 6.355 5.402 10.984 10.414 13.879Zm0 0"/><path style="stroke:none;fill-rule:evenodd;fill:#d3672c;fill-opacity:1" d="M392.36 440.691h6.945c2.316 6.938 6.945 11.567 13.89 13.88v6.94c-13.441-4.507-27.328-6.824-41.668-6.94 1.04 7.3-.117 14.241-3.472 20.82-4.657-5.223-10.446-7.536-17.36-6.942 9.043-16.113 22.93-25.367 41.664-27.758Zm0 0"/><path style="stroke:none;fill-rule:evenodd;fill:#86522e;fill-opacity:1" d="M190.973 489.27c-18.45-2.344-34.657 2.28-48.614 13.878-3.222-7.886-5.539-14.824-6.941-20.82 7.812-7.996 7.812-14.933 0-20.816 2.312-4.63 4.629-9.254 6.941-13.883-1.035-7.3.121-14.238 3.473-20.82 8.816 9.75 12.29 21.316 10.418 34.703 10.262-1.82 19.523.492 27.777 6.937-1.453 4.067-3.77 7.54-6.945 10.41 6.36 1.934 10.992 5.403 13.89 10.41Zm0 0"/><path style="stroke:none;fill-rule:evenodd;fill:#cc652c;fill-opacity:1" d="M350.695 468.45c2.313 18.507 4.63 37.015 6.946 55.519-6.262-5.485-10.891-12.426-13.891-20.82-1.977-13.286.34-24.852 6.945-34.7Zm0 0"/><path style="stroke:none;fill-rule:evenodd;fill:#8a512e;fill-opacity:1" d="M253.473 530.91c-18.52 27.762-37.04 27.762-55.555 0-1.09-9.531.066-18.785 3.473-27.762 33.582-23.046 50.941-13.793 52.082 27.762Zm0 0"/><path style="stroke:none;fill-rule:evenodd;fill:#613b20;fill-opacity:1" d="M420.14 475.39c8.348 6.282 17.606 6.282 27.778 0-.395 7.696-2.711 14.637-6.945 20.82-8.836-3.175-15.778 1.45-20.832 13.88v-34.7Zm0 0"/><path style="stroke:none;fill-rule:evenodd;fill:#613f25;fill-opacity:1" d="M385.418 419.871c-.77 4.285-3.086 7.754-6.945 10.41 6.359 1.93 10.988 5.403 13.886 10.41-18.734 2.391-32.62 11.645-41.664 27.758-6.605 9.848-8.922 21.414-6.945 34.7-4.594-8.45-9.223-17.7-13.89-27.758-2.313 5.78-4.63 11.566-6.942 17.347 4.55 13.25 8.023 25.973 10.414 38.172-9.078-11.742-19.492-20.996-31.25-27.762-5.18-26.441-12.121-26.441-20.832 0-4.629 0-6.945-2.312-6.945-6.937-.594-6.914 1.718-12.695 6.945-17.352 17.379-.898 31.27-7.836 41.668-20.82-10.016-2.613-16.961-8.398-20.836-17.348 13.773 2.38 23.035-2.246 27.777-13.882 8.868 16.753 20.442 17.91 34.723 3.472-5.95-4.785-10.578-10.566-13.887-17.351 18.368-28.961 29.942-26.649 34.723 6.941Zm0 0"/><path style="stroke:none;fill-rule:evenodd;fill:#e26b2a;fill-opacity:1" d="M302.082 503.148H281.25c8.71-26.441 15.652-26.441 20.832 0Zm0 0"/><path style="stroke:none;fill-rule:evenodd;fill:#1b120a;fill-opacity:1" d="M170.14 503.148h20.833c-1.86 11.098.453 20.352 6.945 27.762 18.516 27.762 37.035 27.762 55.555 0 3.925-13.324 10.867-24.89 20.832-34.7 0 4.626 2.316 6.938 6.945 6.938 8.684 18.27 15.629 36.778 20.832 55.524h27.777v-20.82c21.793 8.195 42.625 8.195 62.5 0 11.575-6.942 20.836-16.196 27.782-27.762 5.054-12.43 11.996-17.055 20.832-13.88 3.152 12.208 3.152 26.087 0 41.642a971.153 971.153 0 0 1 0 97.16c-67.028.953-130.684.953-190.973 0-3.223 4.125-4.383 8.75-3.473 13.879h-6.945c-2.02-7.977-7.809-12.602-17.36-13.88-35.91 1.645-74.105 1.645-114.581 0-5.215 6.079-8.688 13.02-10.418 20.817-9.258-18.504-18.52-18.504-27.778 0-13.324-35.96-21.425-72.976-24.304-111.039 20.09-9.66 24.718-24.7 13.886-45.11 15.133 9.497 31.336 12.966 48.614 10.41-5.7 11.184-14.957 15.81-27.782 13.88-3.437 39.46 3.508 42.93 20.836 10.41 27.707-1.137 50.856-11.547 69.446-31.23Zm0 0"/><path style="stroke:none;fill-rule:evenodd;fill:#583a21;fill-opacity:1" d="M72.918 461.512c14.094 26.883 34.926 33.82 62.5 20.816 1.402 5.996 3.719 12.934 6.941 20.82 13.957-11.597 30.164-16.222 48.614-13.878l-20.832 13.878c-18.59 19.684-41.739 30.094-69.446 31.23-17.328 32.52-24.273 29.052-20.836-10.41 12.825 1.93 22.082-2.695 27.782-13.878-17.278 2.555-33.48-.914-48.614-10.41 10.832 20.41 6.203 35.449-13.886 45.11 3.906-28.485 3.906-56.247 0-83.278 11.054 7.644 16.84 3.015 17.359-13.883 1.934 6.355 5.406 10.984 10.418 13.883Zm0 0"/><path style="stroke:none;fill-rule:evenodd;fill:#412a17;fill-opacity:1" d="M343.75 503.148c3 8.395 7.629 15.336 13.89 20.82 9.16 10.009 20.735 14.634 34.72 13.884-19.876 8.195-40.708 8.195-62.5 0-8.387-5.098-17.645-7.41-27.778-6.942v27.762c-5.203-18.746-12.148-37.254-20.832-55.524h20.832c11.758 6.766 22.172 16.02 31.25 27.762-2.39-12.2-5.863-24.922-10.414-38.172 2.312-5.781 4.629-11.566 6.941-17.347 4.668 10.058 9.297 19.308 13.891 27.757Zm0 0"/><path style="stroke:none;fill-rule:evenodd;fill:#9c542b;fill-opacity:1" d="M440.973 537.852c1.52 8.152-.793 15.093-6.946 20.82-28.867-21.418-26.55-28.356 6.946-20.82Zm0 0"/><path style="stroke:none;fill-rule:evenodd;fill:#ce652b;fill-opacity:1" d="M329.86 537.852v20.82h-27.778V530.91c10.133-.469 19.39 1.844 27.777 6.942Zm0 0"/><path style="stroke:none;fill-rule:evenodd;fill:#c05e27;fill-opacity:1" d="M357.64 551.73c25.423-1.039 32.368 9.372 20.833 31.23-26.34 3.376-33.286-7.034-20.832-31.23Zm0 0"/><path style="stroke:none;fill-rule:evenodd;fill:#46240e;fill-opacity:1" d="M239.582 648.89h6.945c18.57 10.419 17.414 17.36-3.472 20.82-20.883-3.46-22.043-10.401-3.473-20.82Zm0 0"/><path style="stroke:none;fill-rule:evenodd;fill:#613a1b;fill-opacity:1" d="M17.36 655.828c8.16-1.52 15.105.797 20.835 6.942-10.777 9.007-17.718 6.695-20.836-6.942Zm0 0"/></svg>